<!--<svg width="40" height="40" viewBox="0 0 40 40" fill="none" xmlns="http://www.w3.org/2000/svg">
    <path d="M32.0845 7.94025V4H24.0203V7.9896H16.029V4H7.91553V7.94025H4V36H16.0044V32.0045C16.0058 30.9457 16.4274 29.9308 17.1766 29.1826C17.9258 28.4345 18.9412 28.0143 20 28.0143C21.0588 28.0143 22.0743 28.4345 22.8234 29.1826C23.5726 29.9308 23.9942 30.9457 23.9956 32.0045V36H36V7.94025H32.0845Z"
          fill="url(#paint0_linear)"/>
    <defs>
        <linearGradient id="paint0_linear" x1="2.94192" y1="4.89955" x2="37.7772" y2="39.7345"
                        gradientUnits="userSpaceOnUse">
            <stop offset="0.15937" stop-color="#3BEA62"/>
            <stop offset="0.5404" stop-color="#3C99CC"/>
            <stop offset="0.93739" stop-color="#6B57FF"/>
        </linearGradient>
    </defs>
</svg>-->

<svg t="1739513306994" class="icon" viewBox="0 0 1348 1024" version="1.1" xmlns="http://www.w3.org/2000/svg" p-id="2120" width="40" height="40"><path d="M652.562188 905.357338C362.250437 883.262894 16.041467 658.32066 33.667439 426.702666S386.601274-20.53018 676.913025 1.563067 1134.337963 456.508848 1116.710793 688.125644s-173.838052 239.32494-464.149803 217.231694z" fill="#F2F2F2" p-id="2121"></path><path d="M70.894326 905.431593a606.016303 37.127481 0 1 0 1212.032607 0 606.016303 37.127481 0 1 0-1212.032607 0Z" fill="#3F3D56" p-id="2122"></path><path d="M160.718877 904.832762a516.191752 24.552044 0 1 0 1032.383505 0 516.191752 24.552044 0 1 0-1032.383505 0Z" opacity=".1" p-id="2123"></path><path d="M0 1001.843277a254.13641 22.156723 0 1 0 508.27282 0 254.13641 22.156723 0 1 0-508.27282 0Z" fill="#3F3D56" p-id="2124"></path><path d="M37.668824 1001.486375a216.467586 14.652181 0 1 0 432.935172 0 216.467586 14.652181 0 1 0-432.935172 0Z" opacity=".1" p-id="2125"></path><path d="M234.973839 194.02115h900.640831v706.6198h-900.640831z" fill="#3F3D56" p-id="2126"></path><path d="M675.04707 290.58853H452.859456a2.695934 2.695934 0 1 1 0-5.394263h222.187614a2.695934 2.695934 0 0 1 0 5.393066zM918.266803 320.248597H568.807381a2.695934 2.695934 0 0 1 0-5.393066h349.459422a2.695934 2.695934 0 1 1 0 5.393066zM676.126162 349.908664H453.93735a2.695934 2.695934 0 1 1 0-5.391869h222.187614a2.695934 2.695934 0 1 1 0 5.393066zM918.266803 350.447611H696.079189a2.695934 2.695934 0 0 1 0-5.391868h222.187614a2.695934 2.695934 0 1 1 0 5.393066zM676.665109 379.569928H454.477495a2.695934 2.695934 0 0 1 0-5.393066H676.666307a2.695934 2.695934 0 1 1 0 5.393066zM677.205254 409.231192H455.016443a2.695934 2.695934 0 0 1 0-5.393066h222.186416a2.695934 2.695934 0 1 1 0 5.393066zM778.051876 291.127478h-63.636502a2.695934 2.695934 0 0 1 0-5.393067h63.636502a2.695934 2.695934 0 1 1 0 5.391869zM778.051876 379.569928h-63.636502a2.695934 2.695934 0 0 1 0-5.393066h63.636502a2.695934 2.695934 0 1 1 0 5.393066zM778.051876 408.692245h-63.636502a2.695934 2.695934 0 1 1 0-5.393066h63.636502a2.695934 2.695934 0 1 1 0 5.393066zM884.831709 408.692245h-63.636502a2.695934 2.695934 0 0 1 0-5.393066h63.635305a2.695934 2.695934 0 1 1 0 5.393066zM515.957011 320.248597H452.320509a2.695934 2.695934 0 0 1 0-5.393066h63.636502a2.695934 2.695934 0 0 1 0 5.393066zM675.316543 727.41131H453.130127a2.695934 2.695934 0 0 1 0-5.391869h222.186416a2.695934 2.695934 0 0 1 0 5.393066zM674.238649 786.733838H452.051035a2.695934 2.695934 0 1 1 0-5.393066h222.187614a2.695934 2.695934 0 0 1 0 5.393066zM674.777596 816.395103H452.589982a2.695934 2.695934 0 1 1 0-5.393066h222.187614a2.695934 2.695934 0 1 1 0 5.393066zM769.692205 787.272786H706.0569a2.695934 2.695934 0 0 1 0-5.393066h63.635305a2.695934 2.695934 0 0 1 0 5.393066zM769.692205 816.395103H706.0569a2.695934 2.695934 0 0 1 0-5.393066h63.635305a2.695934 2.695934 0 1 1 0 5.393066zM876.472038 787.272786h-63.636503a2.695934 2.695934 0 1 1 0-5.393066h63.636503a2.695934 2.695934 0 0 1 0 5.393066zM918.536276 757.072574H569.076855a2.695934 2.695934 0 0 1 0-5.393066h349.459421a2.695934 2.695934 0 0 1 0 5.393066zM516.226485 757.072574h-63.636503a2.695934 2.695934 0 0 1 0-5.393066h63.636503a2.695934 2.695934 0 0 1 0 5.393066zM918.536276 846.595314H569.076855a2.695934 2.695934 0 1 1 0-5.393066h349.459421a2.695934 2.695934 0 0 1 0 5.393066zM516.226485 846.595314h-63.636503a2.695934 2.695934 0 1 1 0-5.393066h63.636503a2.695934 2.695934 0 1 1 0 5.393066z" fill="#F2F2F2" p-id="2127"></path><path d="M621.657752 480.417748l-86.286661 85.207569 86.286661 85.207569 19.414079-19.41408-65.253344-65.254542 65.792292-65.793489-19.953027-19.953027zM748.929559 480.417748l86.286661 85.207569-86.286661 85.207569-19.414079-19.41408 65.254542-65.254542-65.79349-65.793489 19.953027-19.953027z" fill="#6C63FF" p-id="2128"></path><path d="M258.927053 211.98606m-10.778946 0a10.778946 10.778946 0 1 0 21.557892 0 10.778946 10.778946 0 1 0-21.557892 0Z" fill="#6C63FF" p-id="2129"></path><path d="M287.670909 211.98606m-10.778946 0a10.778946 10.778946 0 1 0 21.557892 0 10.778946 10.778946 0 1 0-21.557892 0Z" fill="#6C63FF" p-id="2130"></path><path d="M316.414765 211.98606m-10.778946 0a10.778946 10.778946 0 1 0 21.557892 0 10.778946 10.778946 0 1 0-21.557892 0Z" fill="#6C63FF" p-id="2131"></path><path d="M234.973839 229.95097h900.640831v3.592982h-900.640831z" opacity=".1" p-id="2132"></path><path d="M1348.79827 727.52389c0 76.374821-45.404514 103.043132-101.414313 103.043131s-101.413116-26.667113-101.413116-103.043131 101.413116-173.538637 101.413116-173.538637 101.414313 97.16142 101.414313 173.538637z" fill="#F2F2F2" p-id="2133"></path><path d="M1243.690371 818.883842l1.038372-63.920349 43.224772-79.077941-43.06189 69.051126 0.467088-28.741461 29.789414-57.211053-29.666055 49.605908 0.83956-51.692233 31.899692-45.548233-31.767949 37.41971 0.524575-94.784063-3.29716 125.477711 0.270672-5.176289-32.432652-49.644233 31.912867 59.581223-3.021698 57.730838-0.089825-1.533006-37.389768-52.243156 37.275991 57.656583-0.377264 7.219498-0.068266 0.108987 0.031139 0.592842-7.667424 146.469111h10.243592l1.2288-75.65383 37.186166-57.516456-37.092749 51.828766z" fill="#3F3D56" p-id="2134"></path><path d="M146.859548 899.552277a51.650314 51.650314 0 0 1-9.794469 4.195405c-6.084116 1.661155-12.585018 1.051546-18.729018 2.470774-2.515087 0.580865-5.25294 1.795293-6.052977 4.2493-0.586854 1.801282 0.051499 3.745085 0.663504 5.537983 6.788341 19.90512 10.880747 41.039041 21.7076 59.068625a89.393393 89.393393 0 0 0 16.757668 20.345859c2.46239 2.218068 5.251742 4.388229 8.546507 4.736748a8.680645 8.680645 0 0 0 8.826759-12.194581c-0.970105-2.156987-2.77498-3.828921-3.939106-5.8877a22.464521 22.464521 0 0 1-2.178545-8.371648c-1.069511-8.515367-2.100697-17.411591 0.850339-25.469452 1.977338-5.403845 5.60625-10.011246 8.630343-14.907282s5.53439-10.505879 4.862502-16.221117c-0.459902-3.900781-2.361787-7.46981-4.371461-10.843619-2.014465-3.380996-5.994292-12.46645-10.03999-13.593449-4.200196-1.17251-12.07721 5.007419-15.739656 6.884154zM257.565313 968.308778a16.790005 16.790005 0 0 1-0.795247 5.6829c-1.265927 3.345066-4.407391 5.636191-6.031419 8.823167-2.25759 4.431345-1.23359 9.789678 0.26109 14.533612 0.937768 2.973791 2.167766 6.068547 4.686446 7.906956a15.441439 15.441439 0 0 0 7.130872 2.285136c21.601008 2.989361 43.544547 1.274311 65.341971 1.900688 3.97264 0.113778 8.180022 0.252706 11.64725-1.688702s5.612238-6.823073 3.254044-10.022024c-2.118662-2.87199-6.305683-2.845642-9.871119-3.014512a40.615069 40.615069 0 0 1-25.046678-10.317847 18.099048 18.099048 0 0 1-3.513936-4.0445 24.855052 24.855052 0 0 1-1.837212-4.212173 187.791997 187.791997 0 0 0-10.878352-24.095735c-1.173707-2.173754-2.499518-4.437333-4.678062-5.600261a12.363451 12.363451 0 0 0-5.078082-1.109034c-5.432589-0.352112-19.501509-2.2013-23.701705 2.024047-3.882816 3.904374-0.804828 15.989968-0.889861 20.948282z" fill="#2F2E41" p-id="2135"></path><path d="M290.996813 451.182851m-34.702218 0a34.702218 34.702218 0 1 0 69.404436 0 34.702218 34.702218 0 1 0-69.404436 0Z" fill="#FBBEBE" p-id="2136"></path><path d="M259.660021 479.83808c-2.064767 5.526006-5.565529 10.71547-10.65918 13.689262l47.995054 9.789678a50.844289 50.844289 0 0 1-0.673085-21.400999 12.335905 12.335905 0 0 0 0.287438-5.280486c-0.903036-3.4816-4.82298-5.157127-8.32973-5.957164-8.75969-1.9965-16.506159-3.067209-24.646659-6.936851-2.487541 4.260079-2.14022 11.186151-3.973838 16.09656z" fill="#FBBEBE" p-id="2137"></path><path d="M248.598427 480.533921a37.53229 37.53229 0 0 1 32.712904 0.85513c6.153581 3.242067 11.248429 8.136907 16.253453 12.965874 4.614587 4.451705 9.536972 9.547751 9.863933 15.951643 0.159289 3.101941-0.809619 6.134418-1.298264 9.201627a30.858925 30.858925 0 0 0 16.503764 31.702078c3.813352 6.351195 4.599017 14.047362 4.6589 21.454893 0.221567 28.068376-8.635133 56.481678-2.311485 83.830259 1.483902 6.421857 3.784608 12.640111 5.067302 19.105084 1.661155 8.371648 1.579714 16.982828 2.448019 25.474242a114.096342 114.096342 0 0 0 6.124837 26.941377c-2.08872 3.322311-6.436228 4.595424-10.351382 4.327148s-7.575204-1.968954-11.06878-3.755864c-16.914562-8.655494-32.4075-20.0692-49.92688-27.426429-11.589762-4.866095-23.937644-7.898572-35.18248-13.519194s-21.701611-14.541996-25.138898-26.633578c-1.486297-5.227789-1.578517-10.737028-1.65876-16.172012-0.342531-22.892086-0.658713-46.033286 4.323555-68.379239 4.394217-19.705111 12.864073-38.557488 14.712064-58.66142 0.601226-6.545216 0.6144-13.550333 4.270858-19.011666 5.167906-7.718923 16.32651-9.717819 19.998538-18.249953z" fill="#2F2E41" p-id="2138"></path><path d="M271.260562 451.673892c2.044407-2.668388 5.988303-3.031279 9.254324-2.242021s6.279335 2.471972 9.578891 3.111522a5.599064 5.599064 0 0 0 4.482844-0.629969 6.520065 6.520065 0 0 0 1.935419-4.275649 81.636145 81.636145 0 0 0 0.802433-20.815343 6.16436 6.16436 0 0 1 0.191626-2.919896c0.815607-1.967756 3.307939-2.436042 5.342764-3.068407a15.94805 15.94805 0 0 0 10.794516-16.327708 6.491321 6.491321 0 0 0-1.984524-4.479251c-1.407251-1.147359-3.377403-1.218021-5.193057-1.232393q-13.99227-0.11258-27.984539 0.007186c-3.452856 0.028744-7.078175 0.113778-10.072327 1.834816-2.212079 1.273113-3.857665 3.321113-5.844584 4.924781-5.18108 4.181033-12.18979 5.031373-18.493078 7.173988a18.33379 18.33379 0 0 0-8.105768 4.833758c-2.095906 2.395321-3.104336 5.957164-1.78691 8.854305a31.440988 31.440988 0 0 0 2.258789 3.478007c3.718736 5.945188 1.243172 13.656925 1.798886 20.64767 0.693446 8.728551 13.611414 22.888493 22.371104 24.954458 14.14078 3.334287 5.971536-18.100246 10.653191-23.831052zM251.669229 834.389954c0.892257 6.372752 2.037221 12.76826 1.731817 19.197303-0.427565 8.974071-3.664842 17.622379-4.263672 26.588067-0.44553 6.694923 0.586854 13.462904-0.342531 20.108723-0.595237 4.256486-1.983326 8.358474-2.842048 12.568251a51.972485 51.972485 0 0 0 8.351288 39.841381 6.524855 6.524855 0 0 0 2.424065 2.347414 6.843433 6.843433 0 0 0 3.002535 0.398821 215.515446 215.515446 0 0 0 30.145119-2.740247 2.891153 2.891153 0 0 0 1.936618-0.853932 2.713899 2.713899 0 0 0 0.419181-1.142569c1.850386-9.504635-2.366578-19.034421-3.438484-28.657624-1.144964-10.275929 1.32102-20.573415 3.767841-30.618196a135.991975 135.991975 0 0 1 4.152289-14.644994c1.183289-3.230091 2.612098-6.371555 3.637296-9.656738a73.608225 73.608225 0 0 0 2.637248-15.811517q1.068313-12.665262 1.13179-25.390406a106.541499 106.541499 0 0 0-1.994105-23.96519c-2.249207-9.984897-6.85541-19.258384-11.420892-28.420488a17.999642 17.999642 0 0 0-6.728458 3.197754 150.162696 150.162696 0 0 1-18.384092 10.15736c-4.272056 1.984524-12.601786 3.39417-15.313289 7.528495-2.673179 4.078035-0.948547 12.395788-0.743747 16.894202q0.525773 11.577786 2.134231 23.07413z" fill="#2F2E41" p-id="2139"></path><path d="M251.669229 834.389954c0.892257 6.372752 2.037221 12.76826 1.731817 19.197303-0.427565 8.974071-3.664842 17.622379-4.263672 26.588067-0.44553 6.694923 0.586854 13.462904-0.342531 20.108723-0.595237 4.256486-1.983326 8.358474-2.842048 12.568251a51.972485 51.972485 0 0 0 8.351288 39.841381 6.524855 6.524855 0 0 0 2.424065 2.347414 6.843433 6.843433 0 0 0 3.002535 0.398821 215.515446 215.515446 0 0 0 30.145119-2.740247 2.891153 2.891153 0 0 0 1.936618-0.853932 2.713899 2.713899 0 0 0 0.419181-1.142569c1.850386-9.504635-2.366578-19.034421-3.438484-28.657624-1.144964-10.275929 1.32102-20.573415 3.767841-30.618196a135.991975 135.991975 0 0 1 4.152289-14.644994c1.183289-3.230091 2.612098-6.371555 3.637296-9.656738a73.608225 73.608225 0 0 0 2.637248-15.811517q1.068313-12.665262 1.13179-25.390406a106.541499 106.541499 0 0 0-1.994105-23.96519c-2.249207-9.984897-6.85541-19.258384-11.420892-28.420488a17.999642 17.999642 0 0 0-6.728458 3.197754 150.162696 150.162696 0 0 1-18.384092 10.15736c-4.272056 1.984524-12.601786 3.39417-15.313289 7.528495-2.673179 4.078035-0.948547 12.395788-0.743747 16.894202q0.525773 11.577786 2.134231 23.07413z" opacity=".1" p-id="2140"></path><path d="M204.753267 698.257853c-4.608598 12.407765 2.165371 25.814378 8.050675 37.668824 14.49888 29.206153 24.567614 60.371679 34.582452 91.40187 0.749736 2.324659 1.499471 4.861305 0.663504 7.156023a9.371695 9.371695 0 0 1-3.379798 4.00857c-6.905711 5.244556-15.697739 7.111709-23.923272 9.856747a108.009831 108.009831 0 0 0-22.687286 10.635227c-5.95956 3.692388-11.544251 7.95606-17.115769 12.212546l-17.73975 13.547938a11.860434 11.860434 0 0 0-2.965408 2.870792c-1.711457 2.683958-1.010826 6.188313-0.158091 9.255522a157.410938 157.410938 0 0 0 8.685435 23.7041 8.277033 8.277033 0 0 0 3.149848 4.128336c2.768991 1.487495 6.155976-0.485053 8.269847-2.810909s3.942699-5.221801 6.922479-6.219452c2.978582-0.997651 6.255382 0.210788 9.364508-0.226358 5.02778-0.70662 8.366858-5.337974 11.990979-8.893828 14.810272-14.528822 39.534779-13.47488 55.826557-26.320989a70.935047 70.935047 0 0 1 7.461426-5.830212c2.75462-1.628819 5.878119-2.521076 8.735737-3.960664 8.691424-4.376252 14.155152-13.423381 17.081037-22.704053s3.761852-19.076339 5.864944-28.576184c1.087476-4.911606 2.51868-9.770516 3.002536-14.777935a79.158185 79.158185 0 0 0-0.303009-13.97191l-5.878118-72.715968c-0.479064-5.920037-0.958129-11.848457-1.887513-17.713401-17.4583 0.622784-34.903425 1.32581-52.371307 1.533005-13.898852 0.162882-28.054004 1.135382-41.242643-3.257637z" fill="#2F2E41" p-id="2141"></path><path d="M198.335004 715.268228c2.368973 3.808561 8.132116 3.729515 12.102361 1.640795s7.053024-5.595471 11.030455-7.665028c5.346357-2.782166 11.673599-2.677969 17.697832-2.507902 9.536972 0.269474 19.192512 0.556912 28.368988 3.170208 9.490263 2.70312 18.731413 7.908153 28.545045 6.869782 1.706666-0.179649 3.575017-0.67069 4.503204-2.113871a6.639831 6.639831 0 0 0 0.742549-3.396566l0.320974-8.574053a7.741679 7.741679 0 0 0-0.682667-4.34152 7.284172 7.284172 0 0 0-3.252846-2.491134c-13.968316-6.761992-29.898401-8.020734-45.409305-8.551297q-11.825702-0.407205-23.662182-0.335345c-6.696121 0.041918-14.734819-0.926989-21.245303 0.862315-8.736935 2.40131-13.491648 20.305139-9.057908 27.433616z" fill="#2F2E41" p-id="2142"></path><path d="M286.049276 490.712839c-18.303848-0.162882-34.890251-12.243685-53.191703-12.53831a13.789865 13.789865 0 0 0-6.457787 1.113825c-2.551017 1.28509-4.227742 3.769038-6.164359 5.868537-5.411031 5.858956-13.247325 8.987246-18.806866 14.707273-5.212219 5.363125-8.111756 13.353917-6.054174 20.543474s9.825608 12.705982 17.102594 10.97656a44.073913 44.073913 0 0 1 17.169663-23.329232 87.293894 87.293894 0 0 1 13.420986-7.044641c8.225534-3.72712 17.42237-7.524902 26.010795-4.730759a36.693928 36.693928 0 0 1 8.873468 4.838549l14.316835 9.617215c-1.668341-6.579948-3.16901-13.959933-6.220649-20.022491z" fill="#6C63FF" p-id="2143"></path><path d="M210.369098 525.023422c-2.431251 3.032477 1.069511 7.425496 0.534157 11.27358-0.356903 2.557006-2.461193 4.51039-3.336683 6.938048-0.907827 2.515087-0.426367 5.302044-0.771293 7.954863a34.120155 34.120155 0 0 1-1.527018 5.664935 101.771216 101.771216 0 0 0-3.216916 16.797191l-3.203743 23.923272a90.640158 90.640158 0 0 0-1.01322 10.872363 32.464988 32.464988 0 0 1-0.541343 8.128523c-0.709015 2.614493-2.280346 4.902025-3.336683 7.396753s-1.547378 5.511634-0.119766 7.813538c-4.779864 3.982222-6.201487 11.801748-2.858816 17.0487a9.461519 9.461519 0 0 1 1.473123 2.712701 6.970385 6.970385 0 0 1-0.649132 4.000187l-3.238475 8.63154c-0.829979 2.209684-1.092267 5.572715 1.21323 6.076931a20.367418 20.367418 0 0 0-4.372659 6.906909 8.223138 8.223138 0 0 0 1.164127 7.79198 9.927409 9.927409 0 0 1 2.030034 2.462391 6.554797 6.554797 0 0 1-0.234741 3.884013 14.259348 14.259348 0 0 0 1.764154 11.178965 10.025618 10.025618 0 0 0 10.081908 4.32116c6.479344-1.461146 12.303568-3.769038 18.836807-2.57018 14.067722 2.582156 28.180956 5.173894 41.805543 9.523797 15.550426 4.965501 30.607416 12.24608 46.859672 13.773098a4.548715 4.548715 0 0 0 3.134278-0.48625 4.706806 4.706806 0 0 0 1.44917-2.97978l5.022988-23.551997a242.362208 242.362208 0 0 0 4.616982-26.380872c0.571284-5.726016 0.734166-11.485566 0.898246-17.23793l1.293473-45.786568a45.747045 45.747045 0 0 0-2.634853-19.90512l-7.447054-23.771169c-4.2493-13.565903-13.99706-25.596404-17.467881-39.381479-2.19651-8.724958-3.820538-18.088269-9.710633-24.888586-8.399194-9.695063-22.929214-11.202918-35.647172-9.535775-5.745178 0.752131-11.540658 2.05279-16.509753 5.031373-5.746376 3.44567-9.980106 8.874666-14.076106 14.176709-3.375008 4.370264-6.811096 7.883003-10.263952 12.192186z" fill="#6C63FF" p-id="2144"></path><path d="M240.063897 659.699168c1.047953 4.518774 3.248056 8.685435 4.595424 13.122768 2.256393 7.437473 2.065965 15.445032 4.317567 22.882505 0.946152 3.121104 2.315078 6.118848 2.994152 9.309416 1.580912 7.437473-0.728178 15.132443-3.597773 22.174688s-6.363171 13.986281-7.293754 21.533939c-0.657516 5.315218 0.285043 11.317893 4.383438 14.767156 4.252893 3.581005 10.43402 3.339078 15.974399 2.862409a16.786412 16.786412 0 0 0 5.797875-1.207242c4.237323-2.003686 6.021838-7.018292 7.012303-11.599344 3.318718-15.352812 2.371368-31.26613 1.406054-46.943508l-2.522274-41.001913c-0.485053-7.892584-1.006035-15.950445-3.437286-23.529242-0.886269-2.757015-2.427658-8.328532-4.946338-10.089093-2.49353-1.742596-9.617215-1.820444-12.704785-1.965362-14.489299-0.681469-14.327615 19.542229-11.979002 29.682823z" fill="#FBBEBE" p-id="2145"></path><path d="M256.117341 508.314858c-2.958222-1.548575-6.68654-0.881478-9.547751 0.844351a29.424128 29.424128 0 0 0-7.15243 6.944036c-6.393113 7.805155-13.162291 16.761261-12.213743 26.806042 0.354508 3.766643 1.796491 7.329683 2.774979 10.984943 4.287625 16.0247-0.453913 32.971598 0.089825 49.550816 0.314985 9.580088 2.398914 19.003282 4.475658 28.360605 0.422774 1.909071 1.101848 4.119953 2.948641 4.763096 1.389286 0.482657 2.886362-0.137731 4.261276-0.659911a33.978831 33.978831 0 0 1 31.094864 3.918746c3.431298-1.831223 2.14501-7.620715 1.376113-11.432869-2.286334-11.326277 0.816805-23.011852 4.584645-33.935715s8.275835-21.833354 8.901014-33.372815c0.70662-13.073664-3.627714-25.833541-7.904561-38.208969-0.934175-2.700725-1.953385-5.533192-4.117557-7.399148a16.366033 16.366033 0 0 0-6.231429-2.846839c-4.542727-1.342578-9.142942-2.118662-13.339544-4.316369z" fill="#2F2E41" p-id="2146"></path></svg>